<?xml version="1.0" encoding="UTF-8" standalone="no"?>
<svg
   xmlns:dc="http://purl.org/dc/elements/1.1/"
   xmlns:cc="http://creativecommons.org/ns#"
   xmlns:rdf="http://www.w3.org/1999/02/22-rdf-syntax-ns#"
   xmlns:svg="http://www.w3.org/2000/svg"
   xmlns="http://www.w3.org/2000/svg"
   xmlns:sodipodi="http://sodipodi.sourceforge.net/DTD/sodipodi-0.dtd"
   xmlns:inkscape="http://www.inkscape.org/namespaces/inkscape"
   width="42mm"
   height="35mm"
   viewBox="0 0 42 35"
   version="1.1"
   id="svg1678"
   inkscape:version="1.0.1 (0767f8302a, 2020-10-17)"
   sodipodi:docname="p1.svg">
  <defs
     id="defs1672">
    <clipPath
       clipPathUnits="userSpaceOnUse"
       id="clipPath1378">
      <path
         d="M 0,841.89 H 595.276 V 0 H 0 Z"
         id="path1376" />
    </clipPath>
    <clipPath
       clipPathUnits="userSpaceOnUse"
       id="clipPath1378-3">
      <path
         d="M 0,841.89 H 595.276 V 0 H 0 Z"
         id="path1376-6" />
    </clipPath>
  </defs>
  <sodipodi:namedview
     id="base"
     pagecolor="#ffffff"
     bordercolor="#666666"
     borderopacity="1.0"
     inkscape:pageopacity="0.0"
     inkscape:pageshadow="2"
     inkscape:zoom="1.979899"
     inkscape:cx="315.70873"
     inkscape:cy="33.026144"
     inkscape:document-units="mm"
     inkscape:current-layer="layer1"
     inkscape:document-rotation="0"
     showgrid="false"
     inkscape:window-width="1680"
     inkscape:window-height="1013"
     inkscape:window-x="0"
     inkscape:window-y="0"
     inkscape:window-maximized="1" />
  <metadata
     id="metadata1675">
    <rdf:RDF>
      <cc:Work
         rdf:about="">
        <dc:format>image/svg+xml</dc:format>
        <dc:type
           rdf:resource="http://purl.org/dc/dcmitype/StillImage" />
        <dc:title></dc:title>
      </cc:Work>
    </rdf:RDF>
  </metadata>
  <g
     inkscape:label="Layer 1"
     inkscape:groupmode="layer"
     id="layer1">
    <path
       id="path1354"
       style="fill:none;stroke:#231f20;stroke-width:0.352777;stroke-linecap:round;stroke-linejoin:round;stroke-miterlimit:10;stroke-dasharray:none;stroke-opacity:1"
       d="m 10.15408,0.25195603 c -0.9977264,-0.01097 -1.9021852,0.09681 -2.5977742,0.379822 C 6.3354828,1.128591 5.4497888,1.770813 4.8515618,2.5035 9.0669386,3.281344 11.03232,5.544021 10.63312,5.915694 c 0,0 -6.0485752,-1.264959 -6.5474032,-0.783417 -0.679443,0.656392 0.630657,2.911849 0.422197,3.400831 -0.01192,0.07978 -0.03784,0.158721 -0.08165,0.240294 -0.347839,0.646991 -4.10434394,10.244225 2.504239,15.151011 6.6078832,4.906434 16.8332742,3.505172 19.0593062,2.103229 3.060699,3.450519 7.860386,8.248928 10.503748,8.734351 2.643365,0.485069 2.851727,-0.91627 2.504239,-1.671214 -0.139348,-0.10795 2.086922,1.617475 2.643251,1.293979 C 42.197381,34.06126 33.154214,16.376405 31.067535,14.758566 28.980499,13.14108 22.871821,9.821381 22.357471,9.04315 21.751046,8.126633 20.633531,2.896654 18.54685,2.033759 16.981575,1.386856 13.147262,0.28489903 10.15408,0.25195603 Z"
       inkscape:export-filename="/home/pyriglena/Documents/new_oama_site/placeholder/bird_row.png"
       inkscape:export-xdpi="300"
       inkscape:export-ydpi="300" />
    <g
       id="g1374"
       clip-path="url(#clipPath1378-3)"
       inkscape:export-filename="/home/pyriglena/Documents/new_oama_site/placeholder/bird_row.png"
       inkscape:export-xdpi="300"
       inkscape:export-ydpi="300"
       transform="matrix(0.35277777,0,0,-0.35277777,-128.26865,183.62177)">
      <g
         id="g1380"
         transform="translate(393.7373,503.7338)">
        <path
           d="M 0,0 C 1.479,1.377 -8.479,11.921 -29.183,10.24 -30.662,9.628 -26.718,-4.662 -18.26,-7.595 -15.117,-8.685 -20.859,0 -18.56,2.221 -17.146,3.586 0,0 0,0 Z"
           style="fill:none;stroke:#231f20;stroke-width:1;stroke-linecap:round;stroke-linejoin:round;stroke-miterlimit:10;stroke-dasharray:none;stroke-opacity:1"
           id="path1382" />
        <path
           d="M 0,0 C 1.479,1.377 -8.479,11.921 -29.183,10.24 -30.662,9.628 -26.718,-4.662 -18.26,-7.595 -15.117,-8.685 -20.859,0 -18.56,2.221 -17.146,3.586 0,0 0,0 Z"
           style="fill:none;stroke:#231f20;stroke-width:1;stroke-linecap:round;stroke-linejoin:round;stroke-miterlimit:10;stroke-dasharray:none;stroke-opacity:1"
           id="path1698" />
      </g>
    </g>
    <path
       d="m 10.633119,5.915693 c 0,0 -5.5650702,-3.919008 -10.29511414,-3.612444"
       style="fill:none;fill-opacity:1;fill-rule:nonzero;stroke:#231f20;stroke-width:0.352777;stroke-linecap:round;stroke-linejoin:round;stroke-miterlimit:10;stroke-dasharray:none;stroke-opacity:1"
       id="path1370"
       sodipodi:nodetypes="cc" />
  </g>
</svg>
